# xmcd
#
# Track frame offsets: 
#        150
#        17022
#        36676
#        57067
#        73792
#        95268
#        116746
#        140448
#        161178
#        182603
#        200347
#        220785
#        242189
#        254553
#
# Disc length: 3667 seconds
#
# Revision: 0
# Processed by: cddbd v1.5.2PL0 Copyright (c) Steve Scherf et al.
# Submitted via: ExactAudioCopy v1.3
#
DISCID=d10e510e
DTITLE=Jack De Keyzer - Blues Thing
DYEAR=2009
DGENRE=Elecrtic Blues
TTITLE0=Music Is The Food Of Love
TTITLE1=If I Had Your Love
TTITLE2=Blues Thing
TTITLE3=I Want To Love You
TTITLE4=That's The Only Time
TTITLE5=That's Your Love
TTITLE6=Cry The Blues
TTITLE7=Good Life
TTITLE8=Bills
TTITLE9=Bombshell
TTITLE10=Miss America
TTITLE11=Merciless Beauty
TTITLE12=We Go Together
TTITLE13=That's How Much
EXTD=
EXTT0=
EXTT1=
EXTT2=
EXTT3=
EXTT4=
EXTT5=
EXTT6=
EXTT7=
EXTT8=
EXTT9=
EXTT10=
EXTT11=
EXTT12=
EXTT13=
PLAYORDER=
